<svg id="Layer_1" data-name="Layer 1" xmlns="http://www.w3.org/2000/svg" viewBox="0 0 14.88 14.82"><defs><style>.cls-1{fill:#3a4144;}.cls-2{fill:none;}</style></defs><title>dark-newwin</title><path class="cls-1" d="M11,1.45v.81h2.48a.55.55,0,0,1,.39.93l-7,7,.71.71,7-7a.55.55,0,0,1,.93.39V6.47h.81V2a.55.55,0,0,0-.55-.55Z" transform="translate(-1.51 -1.45)"/><path class="cls-2" d="M2.51,6.1v6.48A2.7,2.7,0,0,0,5.2,15.28H12a2.7,2.7,0,0,0,2.69-2.69V7.5H10V3.4H5.2A2.7,2.7,0,0,0,2.51,6.1Z" transform="translate(-1.51 -1.45)"/><path class="cls-1" d="M14.72,12.58A2.7,2.7,0,0,1,12,15.28H5.2a2.7,2.7,0,0,1-2.69-2.69V6.1A2.7,2.7,0,0,1,5.2,3.4H10v-1H5.2A3.7,3.7,0,0,0,1.51,6.1v6.48A3.7,3.7,0,0,0,5.2,16.28H12a3.7,3.7,0,0,0,3.69-3.69V7.5h-1Z" transform="translate(-1.51 -1.45)"/></svg>