<svg id="Layer_1" data-name="Layer 1" xmlns="http://www.w3.org/2000/svg" viewBox="0 0 37 37"><defs><style>.cls-1{fill:#fff;}</style></defs><title>facebook</title><path class="cls-1" d="M38.21,20.23a18.5,18.5,0,1,1-18.5-18.5A18.52,18.52,0,0,1,38.21,20.23Zm-16.8,6.7v-5.2c0-.3.1-.4.4-.4h3.4c.3,0,.4-.1.4-.4,0-1.1.1-2.2.2-3.3,0-.5,0-.5-.5-.5h-3.6c-.2,0-.4,0-.4-.2v-3c.1-1,.5-1.4,1.5-1.4h2.4c.3,0,.4-.1.4-.4,0-1.1,0-2.1.1-3.2,0-.3-.1-.4-.4-.4-1.3,0-2.6-.1-3.9,0a5,5,0,0,0-4.6,5.2v3c0,.3-.1.5-.4.4h-2.2c-.3,0-.4.1-.4.4V21c0,.3.1.3.4.3h2.1c.6,0,.6,0,.6.6v10.2c0,.5,0,.5.5.5h3.5c.3,0,.4-.1.4-.4C21.41,30.43,21.41,28.63,21.41,26.93Z" transform="translate(-1.21 -1.73)"/></svg>