<svg id="Layer_1" data-name="Layer 1" xmlns="http://www.w3.org/2000/svg" viewBox="0 0 305.53 87.23"><defs><style>.cls-1{isolation:isolate;}.cls-2{fill:#47637e;}.cls-3{fill:#3a4144;}</style></defs><title>logo</title><g class="cls-1"><path class="cls-2" d="M61.95,6.44a5,5,0,0,1,2.18-1.79,6.79,6.79,0,0,1,1.79-.25,1.45,1.45,0,0,1,1.32.73,2.77,2.77,0,0,1,.45,1.46,2.55,2.55,0,0,1-1.06,1.68,9.79,9.79,0,0,1-5.66,2Q57.78,16,53.63,28.81a77.71,77.71,0,0,1-4.06,9.88,57.69,57.69,0,0,1-5.46,9.16,27.84,27.84,0,0,1-7.7,6.92,27.91,27.91,0,0,1-10.84,3.89,30.86,30.86,0,0,1-4.34.28,24.25,24.25,0,0,1-5.18-.62Q5.81,56,2.84,48.24a13.05,13.05,0,0,1-.9-4.68,18.94,18.94,0,0,1,.64-4.79,8.89,8.89,0,0,1,2.8-4.4,7.41,7.41,0,0,1,3.56-2.1c.48-.07.73,0,.73.34a.5.5,0,0,1-.34.45A10.64,10.64,0,0,0,6.09,36a11.49,11.49,0,0,0-2.46,7.5,10.18,10.18,0,0,0,2.8,7.45,14.8,14.8,0,0,0,8.06,4.48,28.9,28.9,0,0,0,5.26.62,13.3,13.3,0,0,0,3.64-.45A32,32,0,0,0,32,52.25a35,35,0,0,0,6.72-4.82,39.11,39.11,0,0,0,5.21-6.1,61.39,61.39,0,0,0,3.92-6.24q1.43-2.69,5.07-10.92t6.38-13.78q-.84.11-4.82.45A62.35,62.35,0,0,0,43,12.63q-7.67,2.13-10.92,8.18a11.9,11.9,0,0,0-1.57,5.66A9.29,9.29,0,0,0,31,29.32q1.23,3.75,4.87,3.75,4.59,0,6.44-4.76a11,11,0,0,0,.9-3.81,13.67,13.67,0,0,0-.11-2.13c-.08-.41,0-.62.17-.62a1.33,1.33,0,0,1,.78.73,7,7,0,0,1,.5,2.77,8.23,8.23,0,0,1-1.06,3.67,8.53,8.53,0,0,1-4.7,4.65,10.18,10.18,0,0,1-3.47.67,7.34,7.34,0,0,1-5-2,8.92,8.92,0,0,1-3-7q0-6.1,5.71-10.25,5.26-3.92,15.23-5,3-.34,6.92-.59t5-.36A20.88,20.88,0,0,1,61.95,6.44ZM52.57,40.85q-.34-1.9-.45-3.14T52,35.17c0-.88.15-1.37.45-1.48h.17q1.68,0,6.22-2.3A99.9,99.9,0,0,0,69.17,25.2a89.87,89.87,0,0,0,12.1-10A72.89,72.89,0,0,0,91.66,2.94q.73-1.06,1.23-1.06a.58.58,0,0,1,.36.17.71.71,0,0,1,.2.56,2.34,2.34,0,0,1-.39,1.06,76.78,76.78,0,0,1-18,19.91Q63.49,32.9,55.71,34.86a1.43,1.43,0,0,0-.11.7q0,.53.11,1.76a32.93,32.93,0,0,0,1.09,4.73,50.24,50.24,0,0,0,2.27,6.47q3.81,8.74,10,8.74a16.19,16.19,0,0,0,6.86-1.51,9.6,9.6,0,0,0,4.73-4.37q.34-.78.84-.78t-.11,1.23a13.87,13.87,0,0,1-5.29,5.46,14.39,14.39,0,0,1-7.76,2.38,11.6,11.6,0,0,1-7.5-2.91Q54.7,51.72,52.57,40.85ZM66,6.58c0-.41-.17-.62-.5-.62a2,2,0,0,0-1.26.53A22.73,22.73,0,0,0,62,8.88a7.58,7.58,0,0,0,2.46-.67Q66,7.48,66,6.58Z" transform="translate(-1.95 -1.88)"/><path class="cls-2" d="M83.65,38.75a23.5,23.5,0,0,0-2.21,5.32,14.77,14.77,0,0,0-.36,2.86q0,1.09.84,1.09,1.06,0,2.63-2a39.88,39.88,0,0,0,4.54-7.45q.22-.5.5-.56.45-.17.45.34a1.76,1.76,0,0,1-.17.67q-5.15,10.42-8.68,10.42a3,3,0,0,1-2.63-1.57,4.33,4.33,0,0,1-.5-2.24,13.15,13.15,0,0,1,.56-3.42q-4.48,7.22-7.73,7.22a2.59,2.59,0,0,1-1.62-.56q-1.68-1.18-1.68-4,0-5.49,4.76-11.14a12.36,12.36,0,0,1,6.61-4.09,7.93,7.93,0,0,1,2-.28,6,6,0,0,1,4.37,1.79,1.1,1.1,0,0,1,.34,1.18.77.77,0,0,1-1,.45,2.58,2.58,0,0,0-2.69-2q-2.41,0-5.94,3.81a30.63,30.63,0,0,0-3.75,5.26q-2.18,3.64-2.18,5.82t1.4,2.18q3.36,0,8.79-10.3a12.86,12.86,0,0,1,1.79-2.83A2.45,2.45,0,0,1,84,34a9.56,9.56,0,0,1,1.15.17,3.53,3.53,0,0,0,1.37.06A21.43,21.43,0,0,0,83.65,38.75Z" transform="translate(-1.95 -1.88)"/><path class="cls-2" d="M87.68,44.88q0-4.65,4.48-15.57H89.25a.36.36,0,0,1-.36-.31.88.88,0,0,1,.06-.62.45.45,0,0,1,.42-.31h3.36q2-4.42,3.75-7.39a13.07,13.07,0,0,1,3.19-4,4.59,4.59,0,0,1,2.1-1,2.71,2.71,0,0,1,.92.11A2.54,2.54,0,0,1,104,18.31,11.44,11.44,0,0,1,102.69,23q-1.29,2.75-2.52,5.1h2.69a.36.36,0,0,1,.36.31.88.88,0,0,1-.06.62.45.45,0,0,1-.42.31H99.5A40.71,40.71,0,0,1,92,38.56l-1.29,5.71a6.32,6.32,0,0,0-.17,1.43A3,3,0,0,0,91,47.12a1.3,1.3,0,0,0,1.23.73,4.39,4.39,0,0,0,2.13-.67q2.69-2,5.94-8.46a1.05,1.05,0,0,1,.53-.62c.21-.07.33,0,.36.14a1.59,1.59,0,0,1-.17.81,52.06,52.06,0,0,1-2.91,5.49q-3,4.87-6.44,4.87a3.61,3.61,0,0,1-2.86-1.29A4.77,4.77,0,0,1,87.68,44.88ZM98.21,29.32H95.58q-.67,1.57-3,7.45A42.8,42.8,0,0,0,98.21,29.32Zm.73-1.23q3.7-6.61,3.7-9.18,0-1.12-.39-1.12-.62,0-1.88,1.79a63.28,63.28,0,0,0-4.23,8.51Z" transform="translate(-1.95 -1.88)"/><path class="cls-2" d="M110.25,46.84q0,1.57,1.12,1.57,2.63,0,7.45-9.86.39-.78.7-.62a.5.5,0,0,1,.31.45,6.26,6.26,0,0,1-.64,1.6q-.64,1.32-1.29,2.52T116,45.67q-2.58,3.92-5.49,3.92a3.53,3.53,0,0,1-3-1.57,3.45,3.45,0,0,1-.5-2,10.52,10.52,0,0,1,.56-3.05,30.21,30.21,0,0,1,3.08-5.82,3.4,3.4,0,0,0,.62-1.6q0-.59-1-.59t-3.64,2.52a39.65,39.65,0,0,0-7.84,11.09q-.39.84-2.07.84a5.71,5.71,0,0,0-1.9.34q10.64-22.12,15.4-30.86a11.82,11.82,0,0,1,1.88-2.74,2.68,2.68,0,0,1,1.93-.78,10,10,0,0,1,1.18.14,5.31,5.31,0,0,0,1.34.08q-1.68,1.74-6,9.6t-8.32,16A41,41,0,0,1,107,36a28.26,28.26,0,0,1,5.12-3.5,11,11,0,0,1,4.42-1.65,1.65,1.65,0,0,1,.62.11Q110.25,43.09,110.25,46.84Z" transform="translate(-1.95 -1.88)"/><path class="cls-2" d="M121.06,48.13a3.44,3.44,0,0,0,2.24-1.06q2.07-2.07,5.26-8.46.39-.84.78-.5a.5.5,0,0,1,.11.36A4.5,4.5,0,0,1,129,39.7l-.81,1.76q-.36.79-1.4,2.55a18,18,0,0,1-1.88,2.72q-2.3,2.63-4.34,2.63a3.39,3.39,0,0,1-2.94-1.23,4.55,4.55,0,0,1-.9-2.74,8.83,8.83,0,0,1,.73-3.3L121.06,33a2.92,2.92,0,0,0,.11-.9,2.71,2.71,0,0,0-.67-1.46l3.08-.06q1.29,0,1.51.48t-.34,1.48L120.27,43a8.77,8.77,0,0,0-1,3.53Q119.32,48.13,121.06,48.13Zm5.49-20.55a2.61,2.61,0,0,1-1.74.67,1.86,1.86,0,0,1-1.51-.67,2,2,0,0,1-.45-1.62,2.71,2.71,0,0,1,1-1.62,2.6,2.6,0,0,1,1.74-.67,2,2,0,0,1,1.54.67A1.85,1.85,0,0,1,127.5,26,2.71,2.71,0,0,1,126.54,27.58Z" transform="translate(-1.95 -1.88)"/><path class="cls-2" d="M163.67,29q0-3.58-3.75-3.58a9.73,9.73,0,0,0-1,.06q-.53.06-.67-.14c-.09-.13-.07-.27.08-.42q.5-.67,3.33-.67a3.58,3.58,0,0,1,3.72,2.46,5.26,5.26,0,0,1,.39,2A11.22,11.22,0,0,1,164,34.24a16.79,16.79,0,0,1-8.34,7.17,15.93,15.93,0,0,1-6.08,1.12,9.21,9.21,0,0,1-6-2.27A10.83,10.83,0,0,1,140,33.85a14.7,14.7,0,0,1-.17-2.3,21.38,21.38,0,0,1,1.79-7.81,25.17,25.17,0,0,1,6-8.54q8-7.84,16.8-9.69a21.88,21.88,0,0,1,4.31-.5,24.72,24.72,0,0,1,3.14.17,7.7,7.7,0,0,1,5.43,3.3A9.27,9.27,0,0,1,178.85,14a16.43,16.43,0,0,1-.67,5.07q-.67,2-.9,2.69t-.81,2l-.76,1.74-.9,2a47.44,47.44,0,0,0-2.24,5.15l1.74-2.8a109.15,109.15,0,0,1,7.39-10.08q7.39-9,13.27-11.65a13.85,13.85,0,0,1,5.77-1.57,6.8,6.8,0,0,1,4.12,1.2q1.65,1.21,1.65,4.12A18.18,18.18,0,0,1,204.66,19q-1.85,4.17-5.4,10.67t-6,11.82a23,23,0,0,0-2.46,9.46,8.29,8.29,0,0,0,.39,2.63q.78,2.58,3,2.58a6,6,0,0,0,2.55-.62,5.29,5.29,0,0,1,2-.62q.67,0,.67.73T198.34,57a3.86,3.86,0,0,1-1.74.59q-9,0-9-7.78a18,18,0,0,1,1-5.77q1-2.91,7-15.51t6.5-15.9a4.42,4.42,0,0,0,.11-1q0-2.35-2.74-2.35a9.27,9.27,0,0,0-4.2,1.23q-8.79,4.2-16.74,16.07a152,152,0,0,0-10.7,19.88q-2.18,4.7-2.3,4.93A3.13,3.13,0,0,1,162.38,53q-1.4,0-1.51-.9a.69.69,0,0,1,0-.39q2.69-4,7.53-14.7A100.31,100.31,0,0,0,175,18.34a22.77,22.77,0,0,0,.56-4.68,9.77,9.77,0,0,0-.56-3.5,5,5,0,0,0-4-3.42,19,19,0,0,0-2.35-.11,17.94,17.94,0,0,0-4.51.87,27.52,27.52,0,0,0-6.75,3.22,31,31,0,0,0-12.26,13.72,20.73,20.73,0,0,0-2.07,8.46,13.2,13.2,0,0,0,.5,3.7q1.85,4.65,6.5,4.87a13.16,13.16,0,0,0,10.08-4.82Q163.67,32.79,163.67,29Z" transform="translate(-1.95 -1.88)"/><path class="cls-2" d="M211.49,29.76q4.09,0,4.09,5.15a12.16,12.16,0,0,1-1.23,5,19.93,19.93,0,0,1-4.7,6.61,2.7,2.7,0,0,0,2.63,1.4,3.84,3.84,0,0,0,2.86-1.51,15.32,15.32,0,0,0,2.41-3.05l1.06-1.93q.34-.62.87-1.76l.64-1.4a.4.4,0,0,1,.39-.25c.37,0,.56.09.56.39a.9.9,0,0,1-.11.39l-.34.78q-.34.79-.5,1.12l-.59,1.2q-.42.87-.73,1.37L218,44.66A13.07,13.07,0,0,1,217,46q-.42.5-1,1.12a6.27,6.27,0,0,1-1.18,1,5.16,5.16,0,0,1-2.63.84,4.53,4.53,0,0,1-3.58-1.46,8.22,8.22,0,0,1-4.76,1.9q-4.09,0-4.09-5.15a12.14,12.14,0,0,1,1.23-5,18.79,18.79,0,0,1,4.73-6.66Q208.75,29.76,211.49,29.76Zm.62,1.74q-1.51,0-3.58,2a18.5,18.5,0,0,0-3.7,5.49,16.07,16.07,0,0,0-2,6.61q0,2.58,2,2.58A5,5,0,0,0,208,46.67a4.71,4.71,0,0,1-.9-2.74q.11-2.41,2-2.41a1.59,1.59,0,0,1,1.2.5,1.43,1.43,0,0,1,.48.92,3.57,3.57,0,0,1-.11.87,31.55,31.55,0,0,0,2.18-4,12.67,12.67,0,0,0,1.4-5.6Q214.18,31.5,212.11,31.5Z" transform="translate(-1.95 -1.88)"/><path class="cls-2" d="M227.62,26.91q0,2.52-3.19,4.76,1.12.06,3,.06t4.73-.28a2.09,2.09,0,0,1,.11.9,5.73,5.73,0,0,1-.67,2.16q-.67,1.43-1.2,2.46l-1,2q-.48.92-1.06,2.27t-1,2.46q-1.4,4.26.45,4.26,2.35,0,6.94-9.35.39-.73.64-.56a.49.49,0,0,1,.25.42,7.87,7.87,0,0,1-.73,1.74q-.73,1.48-1.57,3.05a21,21,0,0,1-2.63,3.64q-2.13,2.58-4.09,2.58-2.18,0-3-2.63a5.08,5.08,0,0,1-.17-1.51,8,8,0,0,1,.64-2.69,29.34,29.34,0,0,1,2-4.09q1.4-2.41,1.57-2.83a2.18,2.18,0,0,0,.17-.81q0-1.74-4.48-1.85l-.67,1.79q-3.53,9.24-6.78,12.38-.56.5-.56-.34a.9.9,0,0,1,.11-.39,42.9,42.9,0,0,0,5.43-9.8,53.28,53.28,0,0,0,3.19-10.75q.34-1.74,1.57-1.74t1.79,1.57A3.73,3.73,0,0,1,227.62,26.91Z" transform="translate(-1.95 -1.88)"/><path class="cls-2" d="M246.44,46.12q0,1.79,1.46,1.79,2.63,0,7-8.79c.11-.22.21-.45.31-.67a.76.76,0,0,1,.45-.45c.2-.07.34,0,.42.14a1.15,1.15,0,0,1-.11.81q-4.48,10.42-9.07,10.42A2.76,2.76,0,0,1,244.48,48a4.78,4.78,0,0,1-.9-2.66,10,10,0,0,1,.28-2.44q-3.25,5.38-5.6,6.1a3.4,3.4,0,0,1-1.32.28,4.8,4.8,0,0,1-1.26-.17q-2.74-.73-2.74-4.37a14.24,14.24,0,0,1,1.26-5.46,22.61,22.61,0,0,1,3.56-5.74,11.25,11.25,0,0,1,5.54-3.7,8.8,8.8,0,0,1,2.77-.39,7.91,7.91,0,0,1,3.56,1q3.81-7.17,6.5-13.27a5.68,5.68,0,0,1,1.54-2.38,2.49,2.49,0,0,1,1.4-.53h.78c.09,0,.45,0,1.06.14a5.81,5.81,0,0,0,1.43.08q-1.29,1.18-6.83,11.42-7.06,13.1-8.51,17.47A8.61,8.61,0,0,0,246.44,46.12Zm2.74-14.73a2.76,2.76,0,0,0-2-.73q-1.32,0-3.67,2a25.9,25.9,0,0,0-6.22,7.73,11.22,11.22,0,0,0-1.62,5A3.57,3.57,0,0,0,236,47a1.2,1.2,0,0,0,1.15.73q1.9,0,4.7-3.92A122.91,122.91,0,0,0,249.18,31.39Z" transform="translate(-1.95 -1.88)"/><path class="cls-2" d="M265.36,29.76q4.09,0,4.09,5.15a12.16,12.16,0,0,1-1.23,5,19.93,19.93,0,0,1-4.7,6.61,2.7,2.7,0,0,0,2.63,1.4A3.84,3.84,0,0,0,269,46.45a15.32,15.32,0,0,0,2.41-3.05l1.06-1.93q.34-.62.87-1.76l.64-1.4a.4.4,0,0,1,.39-.25c.37,0,.56.09.56.39a.9.9,0,0,1-.11.39l-.34.78q-.34.79-.5,1.12l-.59,1.2q-.42.87-.73,1.37l-.84,1.34a13.07,13.07,0,0,1-1,1.34q-.42.5-1,1.12a6.27,6.27,0,0,1-1.18,1,5.16,5.16,0,0,1-2.63.84,4.53,4.53,0,0,1-3.58-1.46,8.22,8.22,0,0,1-4.76,1.9q-4.09,0-4.09-5.15a12.14,12.14,0,0,1,1.23-5,18.79,18.79,0,0,1,4.73-6.66Q262.62,29.76,265.36,29.76ZM266,31.5q-1.51,0-3.58,2A18.5,18.5,0,0,0,258.7,39a16.07,16.07,0,0,0-2,6.61q0,2.58,2,2.58a5,5,0,0,0,3.14-1.51,4.71,4.71,0,0,1-.9-2.74q.11-2.41,2-2.41a1.59,1.59,0,0,1,1.2.5,1.43,1.43,0,0,1,.48.92,3.57,3.57,0,0,1-.11.87,31.55,31.55,0,0,0,2.18-4,12.67,12.67,0,0,0,1.4-5.6Q268.05,31.5,266,31.5Z" transform="translate(-1.95 -1.88)"/><path class="cls-2" d="M290.84,31Q284,43.09,284,46.79q0,1.46,1.06,1.46,2.86,0,7.67-9.69.34-.78.67-.62a.51.51,0,0,1,.34.45,1.42,1.42,0,0,1-.22.67,39.57,39.57,0,0,1-5,8.26q-2,2.27-4.09,2.27A3.52,3.52,0,0,1,281.27,48a3.18,3.18,0,0,1-.56-2,10.53,10.53,0,0,1,.56-3.05,30.25,30.25,0,0,1,3.08-5.82,3.4,3.4,0,0,0,.62-1.6q0-.59-1-.59t-3.64,2.52q-4,3.7-7.78,11.09a1.48,1.48,0,0,1-.76.7,7.38,7.38,0,0,1-1.65.2,4.17,4.17,0,0,0-1.62.28q.9-1.79,3.53-7.34,4.7-9.8,6.16-11.2a2.5,2.5,0,0,1,1.85-.67,9.56,9.56,0,0,1,1.15.17,3.53,3.53,0,0,0,1.37.06q-2.07,1.12-6.78,10.53a45.51,45.51,0,0,1,4.79-5.18,27.43,27.43,0,0,1,5.18-3.58,11,11,0,0,1,4.42-1.65A1.66,1.66,0,0,1,290.84,31Z" transform="translate(-1.95 -1.88)"/><path class="cls-2" d="M295.16,40.74a11.08,11.08,0,0,0-.78,4.26,4,4,0,0,0,.7,2.49,2.35,2.35,0,0,0,2,.92q5.09,0,9.24-9.58.39-.9,1-.78a.26.26,0,0,1,.22.28,23.46,23.46,0,0,1-1.26,2.94,23.61,23.61,0,0,1-2.55,4.4,8.48,8.48,0,0,1-7.06,3.92,5.39,5.39,0,0,1-3.81-1.46,5.16,5.16,0,0,1-1.57-4,13.67,13.67,0,0,1,1.2-5.35,20.48,20.48,0,0,1,3.28-5.26A12.58,12.58,0,0,1,300.48,30a6.18,6.18,0,0,1,2.46-.56,3.86,3.86,0,0,1,2.18.67,2.24,2.24,0,0,1,1,1.74q0,3.36-4,6.44A12,12,0,0,1,298.57,40,11.75,11.75,0,0,1,295.16,40.74Zm9.41-9q0-1.12-.9-1.12-1.57,0-4.76,3.86a28.77,28.77,0,0,0-3.36,5.26,8.84,8.84,0,0,0,2.77-.67,10.66,10.66,0,0,0,3.16-1.79Q304.56,34.69,304.56,31.78Z" transform="translate(-1.95 -1.88)"/></g><g class="cls-1"><path class="cls-3" d="M18.3,83.87H10.23l-1.83,5H6.82l6.73-17.77H15L21.7,88.86H20.14Zm-7.6-1.27h7.13l-3.56-9.68Z" transform="translate(-1.95 -1.88)"/><path class="cls-3" d="M25.3,75.65l0,2.15A4.88,4.88,0,0,1,27.18,76a5,5,0,0,1,2.44-.6q3.12,0,4,2.56a5,5,0,0,1,1.89-1.9,5.24,5.24,0,0,1,2.61-.67q4.25,0,4.33,4.64v8.81H41v-8.7a3.94,3.94,0,0,0-.76-2.62,3.11,3.11,0,0,0-2.45-.85,3.89,3.89,0,0,0-2.66,1,3.6,3.6,0,0,0-1.21,2.42v8.74H32.42V80a3.62,3.62,0,0,0-.8-2.53,3.18,3.18,0,0,0-2.42-.84,3.69,3.69,0,0,0-2.37.79,4.62,4.62,0,0,0-1.46,2.34v9.06H23.9V75.65Z" transform="translate(-1.95 -1.88)"/><path class="cls-3" d="M51.24,89.1a5.73,5.73,0,0,1-3-.83A5.65,5.65,0,0,1,46.08,86a7.21,7.21,0,0,1-.76-3.33v-.52a7.78,7.78,0,0,1,.74-3.43,5.88,5.88,0,0,1,2.06-2.4A5.07,5.07,0,0,1,51,75.41,4.77,4.77,0,0,1,54.79,77a6.66,6.66,0,0,1,1.41,4.49v.82H46.78v.28a5.53,5.53,0,0,0,1.29,3.74,4.1,4.1,0,0,0,3.24,1.5,4.76,4.76,0,0,0,2.07-.43A4.59,4.59,0,0,0,55,86.08l.92.7A5.33,5.33,0,0,1,51.24,89.1ZM51,76.65a3.65,3.65,0,0,0-2.78,1.21,5.58,5.58,0,0,0-1.37,3.25h7.92v-.16a4.85,4.85,0,0,0-1.09-3.1A3.37,3.37,0,0,0,51,76.65Z" transform="translate(-1.95 -1.88)"/><path class="cls-3" d="M65.15,76.9a5.49,5.49,0,0,0-1-.09,3.57,3.57,0,0,0-2.31.76,4.18,4.18,0,0,0-1.35,2.21v9.07H59V75.65h1.43l0,2.1a3.88,3.88,0,0,1,3.72-2.34,2.39,2.39,0,0,1,1,.16Z" transform="translate(-1.95 -1.88)"/><path class="cls-3" d="M67.37,71.84a1,1,0,0,1,.27-.7,1,1,0,0,1,.73-.29,1,1,0,0,1,.74.29,1,1,0,0,1,.27.7,1,1,0,0,1-.27.69,1,1,0,0,1-.74.28,1,1,0,0,1-.73-.28A1,1,0,0,1,67.37,71.84Zm1.72,17H67.63V75.65h1.46Z" transform="translate(-1.95 -1.88)"/><path class="cls-3" d="M77.94,87.87A3.86,3.86,0,0,0,80.5,87a3,3,0,0,0,1.12-2.23H83a4.14,4.14,0,0,1-.76,2.2,4.73,4.73,0,0,1-1.85,1.56,5.58,5.58,0,0,1-2.47.56,5.1,5.1,0,0,1-4.12-1.81,7.31,7.31,0,0,1-1.52-4.86V82A8.25,8.25,0,0,1,73,78.54a5.27,5.27,0,0,1,2-2.32,5.41,5.41,0,0,1,3-.82,5.09,5.09,0,0,1,3.58,1.29A4.72,4.72,0,0,1,83,80.11h-1.4a3.53,3.53,0,0,0-3.69-3.46,3.64,3.64,0,0,0-3.07,1.43,6.46,6.46,0,0,0-1.09,4v.43a6.32,6.32,0,0,0,1.09,3.94A3.67,3.67,0,0,0,77.94,87.87Z" transform="translate(-1.95 -1.88)"/><path class="cls-3" d="M94.27,88.86A6.9,6.9,0,0,1,94,87a5.09,5.09,0,0,1-2,1.54,6,6,0,0,1-2.52.54A4.42,4.42,0,0,1,86.43,88a3.46,3.46,0,0,1-1.18-2.69,3.53,3.53,0,0,1,1.61-3.05,7.71,7.71,0,0,1,4.47-1.12H94v-1.5a2.89,2.89,0,0,0-.87-2.23,3.61,3.61,0,0,0-2.55-.81,4,4,0,0,0-2.53.78,2.32,2.32,0,0,0-1,1.88H85.57A3.4,3.4,0,0,1,87,76.56a5.64,5.64,0,0,1,3.6-1.15,5.15,5.15,0,0,1,3.48,1.1,4,4,0,0,1,1.31,3.08v6.25a7.75,7.75,0,0,0,.4,2.87v.15Zm-4.59-1a4.91,4.91,0,0,0,2.62-.71A4.17,4.17,0,0,0,94,85.21V82.3H91.37a6.54,6.54,0,0,0-3.42.8,2.4,2.4,0,0,0-1.23,2.13,2.36,2.36,0,0,0,.82,1.84A3.1,3.1,0,0,0,89.68,87.81Z" transform="translate(-1.95 -1.88)"/><path class="cls-3" d="M100.72,75.65l0,2.26A5.24,5.24,0,0,1,102.62,76a4.82,4.82,0,0,1,2.45-.64,4,4,0,0,1,3.16,1.2,5.4,5.4,0,0,1,1,3.59v8.67h-1.45V80.18a4,4,0,0,0-.75-2.64,2.94,2.94,0,0,0-2.36-.87,3.69,3.69,0,0,0-2.4.85,5,5,0,0,0-1.54,2.29v9H99.33V75.65Z" transform="translate(-1.95 -1.88)"/><path class="cls-3" d="M129.08,83.87H121l-1.83,5H117.6l6.73-17.77h1.43l6.73,17.77h-1.56Zm-7.6-1.27h7.13L125,72.92Z" transform="translate(-1.95 -1.88)"/><path class="cls-3" d="M140.86,76.9a5.49,5.49,0,0,0-1-.09,3.57,3.57,0,0,0-2.31.76,4.18,4.18,0,0,0-1.35,2.21v9.07h-1.45V75.65h1.43l0,2.1a3.88,3.88,0,0,1,3.72-2.34,2.39,2.39,0,0,1,1,.16Z" transform="translate(-1.95 -1.88)"/><path class="cls-3" d="M146,72.27v3.38h2.73v1.2H146v8.81a2.76,2.76,0,0,0,.4,1.64,1.54,1.54,0,0,0,1.32.54,9.15,9.15,0,0,0,1.18-.12L149,88.9a4.76,4.76,0,0,1-1.56.21,2.6,2.6,0,0,1-2.19-.87,4.1,4.1,0,0,1-.68-2.57V76.85h-2.43v-1.2h2.43V72.27Z" transform="translate(-1.95 -1.88)"/><path class="cls-3" d="M151.72,71.84a1,1,0,0,1,.27-.7,1,1,0,0,1,.73-.29,1,1,0,0,1,.74.29,1,1,0,0,1,.27.7,1,1,0,0,1-.27.69,1,1,0,0,1-.74.28,1,1,0,0,1-.73-.28A1,1,0,0,1,151.72,71.84Zm1.72,17H152V75.65h1.46Z" transform="translate(-1.95 -1.88)"/><path class="cls-3" d="M165.32,85.5a2.08,2.08,0,0,0-.87-1.75,6.73,6.73,0,0,0-2.63-1,11.86,11.86,0,0,1-2.73-.85,3.64,3.64,0,0,1-1.44-1.18,2.94,2.94,0,0,1-.47-1.69,3.14,3.14,0,0,1,1.31-2.58,5.27,5.27,0,0,1,3.34-1,5.43,5.43,0,0,1,3.55,1.09,3.5,3.5,0,0,1,1.34,2.85h-1.46a2.36,2.36,0,0,0-1-1.93,4.38,4.38,0,0,0-4.76-.13,2,2,0,0,0-.87,1.67,1.8,1.8,0,0,0,.73,1.53,7.67,7.67,0,0,0,2.65,1,12.45,12.45,0,0,1,2.88,1,3.73,3.73,0,0,1,1.42,1.23,3.39,3.39,0,0,1-.88,4.42,5.77,5.77,0,0,1-3.52,1A5.91,5.91,0,0,1,158.17,88a3.44,3.44,0,0,1-1.43-2.83h1.46a2.54,2.54,0,0,0,1.08,2,4.41,4.41,0,0,0,2.63.71,4.15,4.15,0,0,0,2.47-.67A2,2,0,0,0,165.32,85.5Z" transform="translate(-1.95 -1.88)"/><path class="cls-3" d="M172.34,72.27v3.38h2.73v1.2h-2.73v8.81a2.76,2.76,0,0,0,.4,1.64,1.54,1.54,0,0,0,1.32.54,9.15,9.15,0,0,0,1.18-.12l.06,1.19a4.76,4.76,0,0,1-1.56.21,2.6,2.6,0,0,1-2.19-.87,4.1,4.1,0,0,1-.68-2.57V76.85h-2.43v-1.2h2.43V72.27Z" transform="translate(-1.95 -1.88)"/><path class="cls-3" d="M187.21,79.17a11.56,11.56,0,0,1-1.54-2.29,4.59,4.59,0,0,1-.48-2,3.94,3.94,0,0,1,1.11-3,4.08,4.08,0,0,1,3-1.09,3.86,3.86,0,0,1,2.75,1,3.27,3.27,0,0,1,1,2.5,4.67,4.67,0,0,1-2,3.46l-2,1.51L194,85a7.57,7.57,0,0,0,1.11-4.07h1.35A8.29,8.29,0,0,1,194.87,86l2.43,2.83h-1.76L194,87.08a7.09,7.09,0,0,1-2.23,1.49,6.74,6.74,0,0,1-2.67.54,5.91,5.91,0,0,1-4-1.3,4.59,4.59,0,0,1-.73-5.92A11.52,11.52,0,0,1,187,79.29Zm1.9,8.7a5.19,5.19,0,0,0,2.15-.47,6,6,0,0,0,1.87-1.34l-5-5.76-.17-.18-.56.43q-2.39,2-2.39,3.78a3.26,3.26,0,0,0,1.1,2.57A4.32,4.32,0,0,0,189.11,87.87Zm-2.47-13a6,6,0,0,0,1.65,3.52l1.6-1.22a5.84,5.84,0,0,0,1.28-1.23,2.56,2.56,0,0,0,.5-1.58,2.13,2.13,0,0,0-.66-1.59,2.42,2.42,0,0,0-1.76-.64,2.46,2.46,0,0,0-1.9.77A2.81,2.81,0,0,0,186.64,74.83Z" transform="translate(-1.95 -1.88)"/><path class="cls-3" d="M208,71.08l6.56,15.69,6.58-15.69h2V88.86h-1.5V81.12l.12-7.93-6.62,15.67H214l-6.59-15.61.12,7.83v7.79H206V71.08Z" transform="translate(-1.95 -1.88)"/><path class="cls-3" d="M235.77,87.19a4.75,4.75,0,0,1-4.21,1.92,4.09,4.09,0,0,1-3.21-1.23,5.37,5.37,0,0,1-1.12-3.63V75.65h1.45v8.41q0,3.77,3.05,3.77t4-2.62V75.65h1.46V88.86h-1.42Z" transform="translate(-1.95 -1.88)"/><path class="cls-3" d="M248.91,85.5a2.08,2.08,0,0,0-.87-1.75,6.73,6.73,0,0,0-2.63-1,11.86,11.86,0,0,1-2.73-.85,3.64,3.64,0,0,1-1.44-1.18,2.94,2.94,0,0,1-.47-1.69,3.14,3.14,0,0,1,1.31-2.58,5.27,5.27,0,0,1,3.34-1A5.43,5.43,0,0,1,249,76.5a3.5,3.5,0,0,1,1.34,2.85h-1.46a2.36,2.36,0,0,0-1-1.93,4.38,4.38,0,0,0-4.76-.13,2,2,0,0,0-.87,1.67,1.8,1.8,0,0,0,.73,1.53,7.67,7.67,0,0,0,2.65,1,12.45,12.45,0,0,1,2.88,1,3.73,3.73,0,0,1,1.42,1.23A3.39,3.39,0,0,1,249,88.1a5.77,5.77,0,0,1-3.52,1A5.91,5.91,0,0,1,241.77,88a3.44,3.44,0,0,1-1.43-2.83h1.46a2.54,2.54,0,0,0,1.08,2,4.41,4.41,0,0,0,2.63.71A4.15,4.15,0,0,0,248,87.2,2,2,0,0,0,248.91,85.5Z" transform="translate(-1.95 -1.88)"/><path class="cls-3" d="M253.58,71.84a1,1,0,0,1,.27-.7,1,1,0,0,1,.73-.29,1,1,0,0,1,.74.29,1,1,0,0,1,.27.7,1,1,0,0,1-.27.69,1,1,0,0,1-.74.28,1,1,0,0,1-.73-.28A1,1,0,0,1,253.58,71.84Zm1.72,17h-1.46V75.65h1.46Z" transform="translate(-1.95 -1.88)"/><path class="cls-3" d="M264.15,87.87A3.86,3.86,0,0,0,266.7,87a3,3,0,0,0,1.12-2.23h1.4a4.14,4.14,0,0,1-.76,2.2,4.73,4.73,0,0,1-1.85,1.56,5.58,5.58,0,0,1-2.47.56A5.1,5.1,0,0,1,260,87.3a7.31,7.31,0,0,1-1.52-4.86V82a8.25,8.25,0,0,1,.68-3.45,5.27,5.27,0,0,1,2-2.32,5.41,5.41,0,0,1,3-.82,5.09,5.09,0,0,1,3.58,1.29,4.72,4.72,0,0,1,1.51,3.41h-1.4a3.53,3.53,0,0,0-3.69-3.46,3.64,3.64,0,0,0-3.07,1.43,6.46,6.46,0,0,0-1.09,4v.43a6.32,6.32,0,0,0,1.09,3.94A3.67,3.67,0,0,0,264.15,87.87Z" transform="translate(-1.95 -1.88)"/><path class="cls-3" d="M272.06,71.84a1,1,0,0,1,.27-.7,1,1,0,0,1,.73-.29,1,1,0,0,1,.74.29,1,1,0,0,1,.27.7,1,1,0,0,1-.27.69,1,1,0,0,1-.74.28,1,1,0,0,1-.73-.28A1,1,0,0,1,272.06,71.84Zm1.72,17h-1.46V75.65h1.46Z" transform="translate(-1.95 -1.88)"/><path class="cls-3" d="M286.08,88.86A6.9,6.9,0,0,1,285.8,87a5.09,5.09,0,0,1-2,1.54,6,6,0,0,1-2.52.54A4.42,4.42,0,0,1,278.24,88a3.46,3.46,0,0,1-1.18-2.69,3.53,3.53,0,0,1,1.61-3.05,7.71,7.71,0,0,1,4.47-1.12h2.65v-1.5a2.89,2.89,0,0,0-.87-2.23,3.61,3.61,0,0,0-2.55-.81,4,4,0,0,0-2.53.78,2.32,2.32,0,0,0-1,1.88h-1.46a3.4,3.4,0,0,1,1.46-2.73,5.64,5.64,0,0,1,3.6-1.15,5.15,5.15,0,0,1,3.48,1.1,4,4,0,0,1,1.31,3.08v6.25a7.75,7.75,0,0,0,.4,2.87v.15Zm-4.59-1a4.91,4.91,0,0,0,2.62-.71,4.17,4.17,0,0,0,1.68-1.89V82.3h-2.61a6.54,6.54,0,0,0-3.42.8,2.4,2.4,0,0,0-1.23,2.13,2.36,2.36,0,0,0,.82,1.84A3.1,3.1,0,0,0,281.49,87.81Z" transform="translate(-1.95 -1.88)"/><path class="cls-3" d="M292.53,75.65l0,2.26A5.24,5.24,0,0,1,294.43,76a4.82,4.82,0,0,1,2.45-.64A4,4,0,0,1,300,76.6a5.4,5.4,0,0,1,1,3.59v8.67h-1.45V80.18a4,4,0,0,0-.75-2.64,2.94,2.94,0,0,0-2.36-.87,3.69,3.69,0,0,0-2.4.85,5,5,0,0,0-1.54,2.29v9h-1.45V75.65Z" transform="translate(-1.95 -1.88)"/></g></svg>