<svg id="Layer_1" data-name="Layer 1" xmlns="http://www.w3.org/2000/svg" viewBox="0 0 13.63 14.17"><defs><style>.cls-1{fill:#fff;}</style></defs><title>wht-newwin</title><path class="cls-1" d="M13.73,12.73A2.26,2.26,0,0,1,11.47,15H4.81a2.26,2.26,0,0,1-2.26-2.26V5.82A2.26,2.26,0,0,1,4.81,3.56h4V2.81h-4a3,3,0,0,0-3,3v6.92a3,3,0,0,0,3,3h6.66a3,3,0,0,0,3-3V8.16h-.75Z" transform="translate(-1.8 -1.56)"/><polygon class="cls-1" points="8.26 0 8.26 0.81 12.06 0.81 4.15 8.72 4.86 9.43 12.82 1.47 12.82 5.02 13.63 5.02 13.63 0 8.26 0"/></svg>